<svg width="78" height="78" viewBox="0 0 78 78" fill="none" xmlns="http://www.w3.org/2000/svg">
<g clip-path="url(#clip0_8796_1134)">
<mask id="mask0_8796_1134" style="mask-type:luminance" maskUnits="userSpaceOnUse" x="0" y="0" width="78" height="78">
<path d="M78 0H0V78H78V0Z" fill="white"/>
</mask>
<g mask="url(#mask0_8796_1134)">
<g filter="url(#filter0_dii_8796_1134)">
<path d="M0 0H78V76.3719C78 77.2662 77.266 78 76.372 78H1.6281C0.733799 78 0 77.2777 0 76.3834V0Z" fill="white"/>
</g>
<path fill-rule="evenodd" clip-rule="evenodd" d="M59.309 50.8265C54.2871 50.8265 50.5608 47.8799 50.0219 43.5115V43.4542H48.5314C48.4512 43.0299 48.4168 42.5942 48.4168 42.17C48.4168 41.7458 48.4512 41.3101 48.5314 40.8859H50.1022V40.84C50.8819 36.7468 54.5852 33.9951 59.3205 33.9951C64.4456 33.9951 68.0228 37.366 68.0228 42.2044V43.4427L53.2552 43.4656V43.5344C53.7712 46.1944 56.156 47.9143 59.3205 47.9143C61.5448 47.9143 63.471 46.9512 64.5144 45.3345L67.5069 46.4237C66.475 48.4761 63.7347 50.838 59.332 50.838L59.309 50.8265ZM59.1256 36.8386C56.305 36.8386 54.1151 38.2947 53.4157 40.6336L53.3469 40.8744H64.6864L64.652 40.6566C64.3768 38.7762 62.2327 36.8271 59.1256 36.8271V36.8386ZM38.4532 50.8265C36.5843 50.8265 35.025 50.5169 33.7982 49.9207C32.5829 49.313 31.6656 48.4646 31.058 47.3868C30.4732 46.332 30.1636 45.0479 30.1522 43.5917H33.7638C33.7982 44.4058 33.9702 45.1167 34.2798 45.7129C34.6237 46.3893 35.1397 46.9053 35.8161 47.2607C36.4811 47.6162 37.3755 47.7996 38.4532 47.7996C39.531 47.7996 40.4253 47.6162 41.0903 47.2607C41.7668 46.9053 42.2827 46.3779 42.6267 45.7129C42.9362 45.1281 43.1082 44.4058 43.1426 43.5917H46.7543C46.7428 45.0593 46.4332 46.332 45.8485 47.3868C45.2408 48.4646 44.3236 49.3245 43.1082 49.9207C41.8929 50.5284 40.3221 50.8265 38.4532 50.8265ZM23.6283 50.4825V43.5803H27.2285V50.4825H23.6283ZM10.5117 50.4825V43.5803H14.1119V50.4825H10.5117ZM43.1426 40.7598V34.2932H46.7428V40.7598H43.1426ZM30.1522 40.7598V34.2932H33.7523V40.7598H30.1522ZM23.4678 40.7598C22.9748 38.5125 21.4154 37.2742 19.0535 37.2742C16.5197 37.2742 14.8342 38.5125 14.2953 40.7598H10.5117V30.4408C11.3831 29.4433 12.6558 28.6866 14.1119 28.3082V36.5404L14.2266 36.4143C15.5566 34.8665 17.735 33.9836 20.2116 33.9836C24.2589 33.9836 26.873 36.5175 27.2055 40.7598H23.4792H23.4678Z" fill="url(#paint0_linear_8796_1134)"/>
<path d="M26.6669 17.7256C26.6669 17.0606 26.2886 16.6823 25.4974 16.6823C25.4172 16.6823 25.3255 16.6823 25.2337 16.6823V18.8607H25.4974C26.3344 18.8607 26.6669 18.4021 26.6669 17.7142M28.2606 17.6912C28.2606 19.0442 27.309 19.8124 25.807 19.8124H25.2337V21.0736H23.6171V15.788C24.1674 15.7192 24.9471 15.6733 25.5777 15.6733C27.2287 15.6733 28.2492 16.2007 28.2492 17.6798M47.3966 17.7027C47.3966 17.0377 47.0182 16.6593 46.2271 16.6593C46.1469 16.6593 46.0551 16.6593 45.9634 16.6593V18.8378H46.2271C47.0641 18.8378 47.3966 18.3792 47.3966 17.6912M48.9903 17.6683C48.9903 19.0212 48.0387 19.7894 46.5367 19.7894H45.9634V21.0506H44.3468V15.765C44.8971 15.6962 45.6768 15.6504 46.3074 15.6504C47.9699 15.6504 48.9788 16.1778 48.9788 17.6568M51.077 17.1065C51.077 16.8199 51.3637 16.6823 51.8223 16.6823C52.3268 16.6823 52.8771 16.7969 53.2555 16.946L53.1179 15.7994C52.6937 15.7077 52.3268 15.6389 51.6388 15.6389C50.3318 15.6389 49.4489 16.1549 49.4489 17.2326C49.4489 19.09 51.9713 18.7117 51.9713 19.5716C51.9713 19.9041 51.7306 20.0761 51.1344 20.0761C50.6069 20.0761 49.7929 19.9041 49.2999 19.6519L49.4719 20.8672C49.9534 21.0392 50.6184 21.1309 51.1458 21.1309C52.4873 21.1309 53.5994 20.6837 53.5994 19.3652C53.5994 17.5995 51.0656 17.932 51.0656 17.0836M43.12 15.7306H41.5033V21.0162H43.12V15.7306ZM36.5846 15.7306H34.968V21.0162H36.5846V15.7306ZM39.3937 19.95V15.7306H37.777V21.0162H40.6893L40.93 19.95H39.3822H39.3937ZM33.787 15.7306V21.0162H32.1704V18.941H30.4964V21.0162H28.8798V15.7306H30.4964V17.8288H32.1704V15.7306H33.787Z" fill="#0B5ED7"/>
</g>
</g>
<defs>
<filter id="filter0_dii_8796_1134" x="-0.975" y="-0.73125" width="79.95" height="80.6813" filterUnits="userSpaceOnUse" color-interpolation-filters="sRGB">
<feFlood flood-opacity="0" result="BackgroundImageFix"/>
<feColorMatrix in="SourceAlpha" type="matrix" values="0 0 0 0 0 0 0 0 0 0 0 0 0 0 0 0 0 0 127 0" result="hardAlpha"/>
<feOffset dy="0.24375"/>
<feGaussianBlur stdDeviation="0.4875"/>
<feComposite in2="hardAlpha" operator="out"/>
<feColorMatrix type="matrix" values="0 0 0 0 0 0 0 0 0 0 0 0 0 0 0 0 0 0 0.07 0"/>
<feBlend mode="normal" in2="BackgroundImageFix" result="effect1_dropShadow_8796_1134"/>
<feBlend mode="normal" in="SourceGraphic" in2="effect1_dropShadow_8796_1134" result="shape"/>
<feColorMatrix in="SourceAlpha" type="matrix" values="0 0 0 0 0 0 0 0 0 0 0 0 0 0 0 0 0 0 127 0" result="hardAlpha"/>
<feOffset dy="0.4875"/>
<feGaussianBlur stdDeviation="1.95"/>
<feComposite in2="hardAlpha" operator="arithmetic" k2="-1" k3="1"/>
<feColorMatrix type="matrix" values="0 0 0 0 0 0 0 0 0 0 0 0 0 0 0 0 0 0 0.04 0"/>
<feBlend mode="normal" in2="shape" result="effect2_innerShadow_8796_1134"/>
<feColorMatrix in="SourceAlpha" type="matrix" values="0 0 0 0 0 0 0 0 0 0 0 0 0 0 0 0 0 0 127 0" result="hardAlpha"/>
<feOffset dy="1.95"/>
<feGaussianBlur stdDeviation="11.7"/>
<feComposite in2="hardAlpha" operator="arithmetic" k2="-1" k3="1"/>
<feColorMatrix type="matrix" values="0 0 0 0 0 0 0 0 0 0 0 0 0 0 0 0 0 0 0.02 0"/>
<feBlend mode="normal" in2="effect2_innerShadow_8796_1134" result="effect3_innerShadow_8796_1134"/>
</filter>
<linearGradient id="paint0_linear_8796_1134" x1="10.5117" y1="39.5673" x2="68.0114" y2="39.5673" gradientUnits="userSpaceOnUse">
<stop stop-color="#E20613"/>
<stop offset="0.07" stop-color="#E6350D"/>
<stop offset="0.14" stop-color="#E95809"/>
<stop offset="0.17" stop-color="#EB6608"/>
<stop offset="0.25" stop-color="#F18B07"/>
<stop offset="0.33" stop-color="#F7A607"/>
<stop offset="0.37" stop-color="#F9B107"/>
<stop offset="0.42" stop-color="#EAB30A"/>
<stop offset="0.51" stop-color="#C4B813"/>
<stop offset="0.61" stop-color="#93C01F"/>
<stop offset="0.67" stop-color="#73B942"/>
<stop offset="0.77" stop-color="#3BAE81"/>
<stop offset="0.82" stop-color="#26AA9A"/>
<stop offset="0.88" stop-color="#1B989E"/>
<stop offset="0.99" stop-color="#016CA9"/>
<stop offset="1" stop-color="#006AAA"/>
</linearGradient>
<clipPath id="clip0_8796_1134">
<rect width="78" height="78" fill="white"/>
</clipPath>
</defs>
</svg>
